<svg width="13" height="13" viewBox="0 0 13 13" fill="none" xmlns="http://www.w3.org/2000/svg">
<g clip-path="url(#clip0_28_1374)">
<path d="M13 5.26714V10.2916C12.9991 11.0097 12.7135 11.698 12.2058 12.2058C11.6981 12.7135 11.0097 12.9991 10.2917 13H9.75C9.60634 13 9.46857 12.9429 9.36699 12.8413C9.2654 12.7397 9.20834 12.602 9.20834 12.4583C9.20834 12.3146 9.2654 12.1769 9.36699 12.0753C9.46857 11.9737 9.60634 11.9166 9.75 11.9166H10.2917C10.7226 11.9166 11.136 11.7454 11.4407 11.4407C11.7455 11.1359 11.9167 10.7226 11.9167 10.2916V5.26714C11.9167 5.00114 11.8514 4.7392 11.7265 4.50432C11.6017 4.26944 11.4211 4.0688 11.2006 3.92001L7.40892 1.36172C7.141 1.17907 6.82426 1.08138 6.5 1.08138C6.17575 1.08138 5.85901 1.17907 5.59109 1.36172L1.79942 3.92001C1.57892 4.0688 1.39831 4.26944 1.27346 4.50432C1.14861 4.7392 1.08332 5.00114 1.08334 5.26714V10.2916C1.08334 10.7226 1.25454 11.1359 1.55929 11.4407C1.86403 11.7454 2.27736 11.9166 2.70834 11.9166H3.25C3.39366 11.9166 3.53144 11.9737 3.63302 12.0753C3.7346 12.1769 3.79167 12.3146 3.79167 12.4583C3.79167 12.602 3.7346 12.7397 3.63302 12.8413C3.53144 12.9429 3.39366 13 3.25 13H2.70834C1.9903 12.9991 1.30193 12.7135 0.794205 12.2058C0.28648 11.698 0.000862211 11.0097 2.12175e-06 10.2916V5.26714C-0.000553019 4.8239 0.107837 4.38732 0.315634 3.99581C0.523431 3.60431 0.824266 3.26987 1.19167 3.02193L4.98334 0.463096C5.43035 0.159737 5.95814 -0.00244141 6.49838 -0.00244141C7.03861 -0.00244141 7.5664 0.159737 8.01342 0.463096L11.8051 3.02193C12.1729 3.26974 12.4741 3.60407 12.6825 3.99554C12.8908 4.38702 12.9999 4.82367 13 5.26714ZM10.2917 8.12876C10.2931 8.62683 10.1956 9.12022 10.005 9.58037C9.81442 10.0405 9.53443 10.4583 9.18125 10.8095L7.27729 12.6717C7.06886 12.8735 6.79012 12.9864 6.5 12.9864C6.20989 12.9864 5.93114 12.8735 5.72271 12.6717L3.82309 10.8138C3.3813 10.3734 3.055 9.8308 2.8731 9.2341C2.69121 8.6374 2.65935 8.00504 2.78034 7.39308C2.90133 6.78112 3.17144 6.20847 3.56672 5.72588C3.962 5.2433 4.47023 4.86569 5.04638 4.62654C5.62252 4.38739 6.24877 4.29408 6.8696 4.35489C7.49044 4.4157 8.08668 4.62874 8.60547 4.97513C9.12426 5.32152 9.54958 5.79056 9.84371 6.34067C10.1378 6.89078 10.2917 7.50496 10.2917 8.12876ZM9.20834 8.12876C9.20834 7.68339 9.09851 7.24489 8.88858 6.85209C8.67864 6.4593 8.37507 6.12435 8.00477 5.87689C7.63446 5.62944 7.20885 5.47713 6.76562 5.43345C6.32239 5.38977 5.87523 5.45607 5.46375 5.62648C5.05227 5.79689 4.68916 6.06614 4.40658 6.4104C4.12401 6.75465 3.9307 7.16328 3.84376 7.60009C3.75683 8.03689 3.77896 8.4884 3.9082 8.91461C4.03743 9.34082 4.26978 9.72859 4.58467 10.0436L6.4805 11.8971L8.41967 10.0392C8.67079 9.78865 8.86978 9.49081 9.00515 9.1629C9.14052 8.83499 9.20957 8.48351 9.20834 8.12876ZM8.125 8.12497C8.125 8.44637 8.0297 8.76054 7.85114 9.02777C7.67258 9.295 7.41879 9.50328 7.12186 9.62628C6.82493 9.74927 6.4982 9.78145 6.18298 9.71875C5.86776 9.65605 5.57821 9.50128 5.35095 9.27402C5.12369 9.04676 4.96893 8.75721 4.90623 8.44199C4.84352 8.12677 4.87571 7.80004 4.9987 7.50311C5.12169 7.20618 5.32997 6.95239 5.5972 6.77383C5.86443 6.59528 6.17861 6.49997 6.5 6.49997C6.93098 6.49997 7.3443 6.67118 7.64905 6.97592C7.9538 7.28067 8.125 7.69399 8.125 8.12497Z" fill="#297687"/>
</g>
<defs>
<clipPath id="clip0_28_1374">
<rect width="13" height="13" fill="white"/>
</clipPath>
</defs>
</svg>
