<svg width="17" height="17" viewBox="0 0 17 17" fill="none" xmlns="http://www.w3.org/2000/svg">
<g clip-path="url(#clip0_28_159)">
<path d="M0 13.4584C0.00112473 14.3973 0.374625 15.2975 1.03857 15.9615C1.70252 16.6254 2.6027 16.9989 3.54167 17H13.4583C14.3973 16.9989 15.2975 16.6254 15.9614 15.9615C16.6254 15.2975 16.9989 14.3973 17 13.4584V7.08337H0V13.4584ZM12.0417 10.2709C12.2518 10.2709 12.4572 10.3332 12.632 10.4499C12.8067 10.5667 12.9429 10.7326 13.0233 10.9268C13.1037 11.1209 13.1247 11.3346 13.0838 11.5407C13.0428 11.7468 12.9416 11.9361 12.793 12.0847C12.6444 12.2333 12.4551 12.3345 12.2489 12.3755C12.0428 12.4165 11.8292 12.3954 11.6351 12.315C11.4409 12.2346 11.275 12.0984 11.1582 11.9237C11.0415 11.7489 10.9792 11.5435 10.9792 11.3334C10.9792 11.0516 11.0911 10.7813 11.2904 10.5821C11.4896 10.3828 11.7599 10.2709 12.0417 10.2709ZM8.5 10.2709C8.71014 10.2709 8.91557 10.3332 9.09029 10.4499C9.26502 10.5667 9.4012 10.7326 9.48162 10.9268C9.56204 11.1209 9.58308 11.3346 9.54208 11.5407C9.50109 11.7468 9.39989 11.9361 9.2513 12.0847C9.10271 12.2333 8.91339 12.3345 8.70728 12.3755C8.50118 12.4165 8.28755 12.3954 8.0934 12.315C7.89925 12.2346 7.73331 12.0984 7.61656 11.9237C7.49981 11.7489 7.4375 11.5435 7.4375 11.3334C7.4375 11.0516 7.54944 10.7813 7.7487 10.5821C7.94796 10.3828 8.21821 10.2709 8.5 10.2709ZM4.95833 10.2709C5.16848 10.2709 5.3739 10.3332 5.54863 10.4499C5.72335 10.5667 5.85954 10.7326 5.93996 10.9268C6.02037 11.1209 6.04141 11.3346 6.00042 11.5407C5.95942 11.7468 5.85823 11.9361 5.70963 12.0847C5.56104 12.2333 5.37172 12.3345 5.16562 12.3755C4.95951 12.4165 4.74588 12.3954 4.55173 12.315C4.35759 12.2346 4.19165 12.0984 4.0749 11.9237C3.95815 11.7489 3.89583 11.5435 3.89583 11.3334C3.89583 11.0516 4.00777 10.7813 4.20703 10.5821C4.40629 10.3828 4.67654 10.2709 4.95833 10.2709Z" fill="#B7B7B7"/>
<path d="M13.4583 1.41667H12.75V0.708333C12.75 0.520472 12.6754 0.340304 12.5425 0.207466C12.4097 0.0746278 12.2295 0 12.0417 0C11.8538 0 11.6736 0.0746278 11.5408 0.207466C11.408 0.340304 11.3333 0.520472 11.3333 0.708333V1.41667H5.66667V0.708333C5.66667 0.520472 5.59204 0.340304 5.4592 0.207466C5.32636 0.0746278 5.14619 0 4.95833 0C4.77047 0 4.5903 0.0746278 4.45747 0.207466C4.32463 0.340304 4.25 0.520472 4.25 0.708333V1.41667H3.54167C2.6027 1.41779 1.70252 1.79129 1.03857 2.45524C0.374625 3.11919 0.00112473 4.01937 0 4.95833L0 5.66667H17V4.95833C16.9989 4.01937 16.6254 3.11919 15.9614 2.45524C15.2975 1.79129 14.3973 1.41779 13.4583 1.41667Z" fill="#B7B7B7"/>
</g>
<defs>
<clipPath id="clip0_28_159">
<rect width="17" height="17" fill="white"/>
</clipPath>
</defs>
</svg>
