<svg width="17" height="17" viewBox="0 0 17 17" fill="none" xmlns="http://www.w3.org/2000/svg">
<g clip-path="url(#clip0_28_744)">
<path d="M2.8334 4.25002C2.55414 4.25075 2.27751 4.1961 2.01951 4.08923C1.76151 3.98235 1.52726 3.82538 1.33032 3.62739L0.23665 2.65414C0.0963175 2.52903 0.0114346 2.35329 0.000674674 2.16559C-0.0100852 1.97789 0.0541593 1.7936 0.179275 1.65327C0.304391 1.51294 0.480129 1.42805 0.66783 1.41729C0.85553 1.40653 1.03982 1.47078 1.18015 1.59589L2.30286 2.59748C2.36713 2.66965 2.44549 2.72791 2.53312 2.76867C2.62075 2.80943 2.71579 2.83183 2.8124 2.83448C2.90901 2.83714 3.00514 2.81999 3.09488 2.78411C3.18461 2.74822 3.26605 2.69435 3.33419 2.62581L5.88703 0.195518C6.0243 0.0733099 6.20369 0.00924027 6.38732 0.0168421C6.57095 0.0244439 6.74444 0.103122 6.87114 0.236258C6.99784 0.369394 7.06783 0.546564 7.06634 0.730346C7.06484 0.914129 6.99196 1.09013 6.86311 1.22118L4.3209 3.63943C4.12524 3.83396 3.89316 3.988 3.63792 4.09277C3.38268 4.19754 3.1093 4.25097 2.8334 4.25002V4.25002ZM17.0001 2.83335C17.0001 2.64549 16.9254 2.46532 16.7926 2.33248C16.6598 2.19965 16.4796 2.12502 16.2917 2.12502H9.2084C9.02054 2.12502 8.84037 2.19965 8.70753 2.33248C8.57469 2.46532 8.50007 2.64549 8.50007 2.83335C8.50007 3.02121 8.57469 3.20138 8.70753 3.33422C8.84037 3.46706 9.02054 3.54168 9.2084 3.54168H16.2917C16.4796 3.54168 16.6598 3.46706 16.7926 3.33422C16.9254 3.20138 17.0001 3.02121 17.0001 2.83335ZM4.3209 9.3061L6.86311 6.88785C6.93406 6.82468 6.99159 6.74788 7.03225 6.66203C7.07292 6.57617 7.09591 6.48302 7.09984 6.3881C7.10376 6.29318 7.08856 6.19844 7.05513 6.10952C7.02169 6.0206 6.97072 5.93931 6.90522 5.87049C6.83973 5.80167 6.76107 5.74673 6.67391 5.70894C6.58675 5.67114 6.49288 5.65127 6.39789 5.65049C6.30289 5.64972 6.20871 5.66806 6.12094 5.70443C6.03318 5.74079 5.95363 5.79444 5.88703 5.86218L3.33703 8.29248C3.20218 8.42141 3.0228 8.49337 2.83623 8.49337C2.64967 8.49337 2.47029 8.42141 2.33544 8.29248L1.20919 7.16977C1.0756 7.04074 0.896672 6.96934 0.710949 6.97096C0.525227 6.97257 0.347568 7.04706 0.216237 7.1784C0.0849063 7.30973 0.0104116 7.48739 0.00879773 7.67311C0.00718385 7.85883 0.0785799 8.03776 0.207609 8.17135L1.33032 9.29406C1.72675 9.69059 2.26384 9.91436 2.82454 9.91661C3.38525 9.91887 3.92412 9.69942 4.32373 9.3061H4.3209ZM17.0001 8.50002C17.0001 8.31216 16.9254 8.13199 16.7926 7.99915C16.6598 7.86631 16.4796 7.79168 16.2917 7.79168H9.2084C9.02054 7.79168 8.84037 7.86631 8.70753 7.99915C8.57469 8.13199 8.50007 8.31216 8.50007 8.50002C8.50007 8.68788 8.57469 8.86805 8.70753 9.00088C8.84037 9.13372 9.02054 9.20835 9.2084 9.20835H16.2917C16.4796 9.20835 16.6598 9.13372 16.7926 9.00088C16.9254 8.86805 17.0001 8.68788 17.0001 8.50002ZM4.3209 14.9728L6.86028 12.5545C6.93123 12.4913 6.98875 12.4146 7.02942 12.3287C7.07009 12.2428 7.09307 12.1497 7.097 12.0548C7.10093 11.9598 7.08573 11.8651 7.05229 11.7762C7.01886 11.6873 6.96788 11.606 6.90239 11.5372C6.8369 11.4683 6.75824 11.4134 6.67108 11.3756C6.58392 11.3378 6.49005 11.3179 6.39505 11.3172C6.30006 11.3164 6.20587 11.3347 6.11811 11.3711C6.03035 11.4075 5.9508 11.4611 5.88419 11.5289L3.33419 13.9591C3.26605 14.0277 3.18461 14.0816 3.09488 14.1174C3.00514 14.1533 2.90901 14.1705 2.8124 14.1678C2.71579 14.1652 2.62075 14.1428 2.53312 14.102C2.44549 14.0612 2.36713 14.003 2.30286 13.9308L1.18015 12.9292C1.03982 12.8041 0.85553 12.7399 0.66783 12.7506C0.480129 12.7614 0.304391 12.8463 0.179275 12.9866C0.0541593 13.1269 -0.0100852 13.3112 0.000674674 13.4989C0.0114346 13.6866 0.0963175 13.8624 0.23665 13.9875L1.33032 14.9607C1.72675 15.3573 2.26384 15.581 2.82454 15.5833C3.38525 15.5855 3.92412 15.3661 4.32373 14.9728H4.3209ZM17.0001 14.1667C17.0001 13.9788 16.9254 13.7987 16.7926 13.6658C16.6598 13.533 16.4796 13.4584 16.2917 13.4584H9.2084C9.02054 13.4584 8.84037 13.533 8.70753 13.6658C8.57469 13.7987 8.50007 13.9788 8.50007 14.1667C8.50007 14.3545 8.57469 14.5347 8.70753 14.6676C8.84037 14.8004 9.02054 14.875 9.2084 14.875H16.2917C16.4796 14.875 16.6598 14.8004 16.7926 14.6676C16.9254 14.5347 17.0001 14.3545 17.0001 14.1667Z" fill="#B7B7B7"/>
</g>
<defs>
<clipPath id="clip0_28_744">
<rect width="17" height="17" fill="white"/>
</clipPath>
</defs>
</svg>
