<svg width="17" height="17" viewBox="0 0 17 17" fill="none" xmlns="http://www.w3.org/2000/svg">
<g clip-path="url(#clip0_28_738)">
<path d="M11.3638 9.91663H5.63621C4.70532 9.91775 3.81289 10.288 3.15465 10.9463C2.49642 11.6045 2.12612 12.4969 2.125 13.4278V17H14.875V13.4278C14.8739 12.4969 14.5036 11.6045 13.8453 10.9463C13.1871 10.288 12.2947 9.91775 11.3638 9.91663Z" fill="#B7B7B7"/>
<path d="M8.5 8.5C10.8472 8.5 12.75 6.59721 12.75 4.25C12.75 1.90279 10.8472 0 8.5 0C6.15279 0 4.25 1.90279 4.25 4.25C4.25 6.59721 6.15279 8.5 8.5 8.5Z" fill="#B7B7B7"/>
</g>
<defs>
<clipPath id="clip0_28_738">
<rect width="17" height="17" fill="white"/>
</clipPath>
</defs>
</svg>
